<?xml version="1.0" encoding="UTF-8"?>
<!DOCTYPE svg PUBLIC "-//W3C//DTD SVG 1.1//EN" "http://www.w3.org/Graphics/SVG/1.1/DTD/svg11.dtd">
<svg 
	xmlns="http://www.w3.org/2000/svg" 
	xml:space="preserve" 
	version="1.1" 
	style="shape-rendering:geometricPrecision; text-rendering:geometricPrecision; image-rendering:optimizeQuality; fill-rule:evenodd; clip-rule:evenodd"
	viewBox="0 0 979 196"
 	xmlns:xlink="http://www.w3.org/1999/xlink">
 <defs>
  <style type="text/css">
   <![CDATA[
    .fil0 {fill:#FFF}
   ]]>
  </style>
 </defs>
 <g>
  <path class="fil0" d="M972 196l-971 0 0 -195 101 45c35,14 70,26 108,39 19,6 37,11 56,17 43,12 73,19 116,29 20,5 41,8 61,13l61 11c33,5 93,15 127,19l66 8c17,2 101,9 118,9 12,0 41,3 52,3 13,0 23,1 36,1 6,0 10,1 17,1l55 1z"/>
 </g>
</svg>
