<svg
   xmlns="http://www.w3.org/2000/svg"
   viewBox="0 0 14 14"
   id="libre-seo-alexa"
>
  <path
     d="M 5.633966,12.805262 C 2.798029,12.128856 0.99850397,9.8608146 1.000001,6.9648226 1.001401,4.1324716 2.616586,2.0423196 5.420954,1.2435966 9.303713,0.13773255 13,2.9279636 13,6.9648226 c 0,2.78156 -1.611531,4.9278074 -4.293969,5.7187354 -1.311735,0.38677 -1.868295,0.40882 -3.072065,0.121704 z m 2.843031,-1.057174 c 1.430245,-0.384955 3.063079,-2.0908214 3.452825,-3.6072614 0.849197,-3.30409 -2.268536,-6.673406 -5.656238,-6.112661 -2.295918,0.380028 -4.38725,2.733254 -4.38725,4.936657 0,1.311016 1.149821,3.4174764 2.218745,4.0647114 1.620602,0.981282 2.722759,1.162427 4.371918,0.718554 z M 4.877056,9.0990816 c -0.880533,-0.862678 -0.257878,-1.751514 1.674241,-2.38997 1.617087,-0.534357 1.973854,-1.225353 0.966525,-1.871997 -0.882888,-0.566761 -1.782969,-0.265716 -1.69487,0.566877 0.08232,0.777987 -0.733618,1.101771 -1.00842,0.400164 -0.266879,-0.681371 1.019377,-1.624723 2.215304,-1.624723 1.469256,0 1.834847,0.551068 1.834847,2.765731 0,1.623167 0.06047,1.855086 0.514007,1.971284 0.282705,0.07243 0.450299,0.232682 0.372433,0.356119 -0.222037,0.35198 -1.049018,0.262898 -1.399412,-0.150744 -0.280747,-0.331419 -0.38157,-0.331419 -0.864527,0 -0.716045,0.49137 -2.097667,0.479333 -2.610128,-0.02274 z m 2.614069,-0.659094 c 0.329001,-0.302815 0.598186,-0.82326 0.598186,-1.156542 0,-0.511674 -0.09049,-0.57862 -0.581529,-0.430217 -1.203404,0.363697 -2.003045,0.899432 -2.003045,1.341981 0,0.964792 1.061929,1.095653 1.986388,0.244778 z"
/>
</svg>
