<svg
   xmlns="http://www.w3.org/2000/svg"
   viewBox="0 0 14 14"
   id="libre-social-vcard"
>
  <path
     d="m 1.7357,2.900891 c -0.2979,0.1059 -0.5127,0.3093 -0.6586,0.6243 l -0.077,0.1632 0,3.3080001 0,3.3077999 0.092,0.1947 c 0.1117,0.2348 0.315,0.441 0.5441,0.5555 0.1605,0.077 0.1834,0.08 0.6845,0.089 l 0.5184,0.012 0.017,-0.1489 c 0.046,-0.3895 0.3981,-0.7189 0.8162,-0.7619 0.4612,-0.049 0.9022,0.2779 0.9881,0.7303 l 0.034,0.1747 2.3084,0 2.3083,0 0.014,-0.126 c 0.031,-0.2748 0.2147,-0.5326 0.4868,-0.6787 0.1662,-0.089 0.2005,-0.097 0.4239,-0.094 0.2922,0 0.4582,0.069 0.6616,0.2693 0.1403,0.1403 0.255,0.3866 0.255,0.5469 l 0,0.089 0.524,-0.012 c 0.5041,-0.01 0.527,-0.011 0.6873,-0.089 0.2291,-0.1146 0.4325,-0.3208 0.5442,-0.5555 l 0.092,-0.1947 0,-3.3077999 0,-3.3078001 -0.092,-0.1947 c -0.1117,-0.2349 -0.3151,-0.4411 -0.5442,-0.5557 l -0.1661,-0.08 -5.1551,-0.01 c -5.0061,-0.01 -5.1608,-0.01 -5.3069,0.049 z m 2.758,1.4864001 c 0.5585,0.2605 0.7904,0.9221 0.5098,1.472 -0.086,0.1748 -0.2978,0.3895 -0.4554,0.4668 l -0.1174,0.057 0.1747,0.08 c 0.2434,0.1146 0.547,0.4267 0.6845,0.696 0.126,0.2578 0.1976,0.5671 0.1861,0.8105 -0.01,0.1718 -0.014,0.189 -0.1031,0.2462 -0.051,0.037 -0.1546,0.08 -0.2291,0.097 -0.1976,0.052 -1.6868,0.072 -2.0019,0.029 -0.2834,-0.037 -0.4753,-0.1088 -0.5212,-0.1947 -0.077,-0.1461 0,-0.6243 0.1661,-0.9651 0.1461,-0.3121 0.3694,-0.5499 0.6445,-0.6902 l 0.2119,-0.1089 -0.1174,-0.069 c -0.1891,-0.1059 -0.3809,-0.3122 -0.4697,-0.5041 -0.069,-0.1518 -0.08,-0.209 -0.08,-0.4468 0,-0.2406 0.01,-0.295 0.083,-0.4496 0.086,-0.1891 0.3007,-0.421 0.4783,-0.5098 0.292,-0.1545 0.6529,-0.1603 0.9565,-0.017 z m 6.7474,0.441 c 0.1146,0.077 0.1891,0.255 0.1575,0.378 -0.011,0.043 -0.063,0.1232 -0.1175,0.1776 l -0.094,0.094 -1.8071,0 c -1.9846,0 -1.9302,0.01 -2.0219,-0.1718 -0.095,-0.1833 -0.032,-0.4152 0.1345,-0.4954 0.083,-0.043 0.2892,-0.049 1.873,-0.049 l 1.7785,0 0.097,0.066 z m 0.043,1.4892 c 0.1861,0.169 0.1489,0.4612 -0.075,0.5728 -0.092,0.046 -0.2291,0.049 -1.8988,0.043 l -1.8014,-0.01 -0.097,-0.1059 c -0.083,-0.094 -0.097,-0.1288 -0.097,-0.2549 0,-0.1289 0.011,-0.1575 0.097,-0.2434 l 0.097,-0.097 1.8357,0 1.8358,0 0.1032,0.094 z m -1.1628,1.3891 c 0.2205,0.1088 0.2606,0.4009 0.074,0.5698 l -0.1031,0.095 -1.2916,0 -1.2917,0 -0.097,-0.097 c -0.083,-0.083 -0.097,-0.1174 -0.097,-0.2376 0,-0.1575 0.049,-0.2435 0.1833,-0.3266 0.083,-0.052 0.1575,-0.054 1.3059,-0.054 1.1026,0 1.2258,0.01 1.3174,0.052 z"
/>
</svg>
