<svg xmlns="http://www.w3.org/2000/svg" viewBox="0 0 14 14" id="libre-newsletter"><path d="M 10,4.5 4,4.5 4,5 10,5 10,4.5 Z M 5.5,5.5 4,5.5 4,6 5.5,6 5.5,5.5 Z m 0,1 -1.5,0 0,0.5 1.5,0 0,-0.5 z m 4.5,-1 -1.5,0 0,0.5 1.5,0 0,-0.5 z m 0,1 -1.5,0 0,0.5 1.5,0 0,-0.5 z m 0,1 -6,0 0,0.5 6,0 0,-0.5 z M 7,8.5 4,8.5 4,9 7,9 7,8.5 Z m 0,1 -3,0 0,0.5 3,0 0,-0.5 z m 0,1 -3,0 0,0.5 3,0 0,-0.5 z M 8,5.5 6,5.5 6,7 8,7 8,5.5 Z M 7.084,3.986 6.854,3.0155 l 0.2525,0 0.12,0.6725 0.135,-0.6725 0.246,0 0.119,0.66 0.1245,-0.66 0.241,0 -0.2505,0.9705 -0.25,0 -0.119,-0.642 -0.1355,0.642 -0.253,0 z m -0.2895,-0.198 -0.39,0 0,-0.203 0.349,0 0,-0.1965 -0.349,0 0,-0.175 0.37,0 0,-0.198 -0.6075,0 0,0.9705 0.6275,0 0,-0.198 z M 8.423,3.802 C 8.3485,3.802 8.261,3.7805 8.19,3.744 L 8.178,3.7375 8.129,3.9365 8.1365,3.9405 C 8.1875,3.9695 8.2955,4 8.41,4 8.7005,4 8.804,3.836 8.804,3.695 8.804,3.559 8.7235,3.466 8.5505,3.402 8.4235,3.354 8.3815,3.3295 8.3815,3.2785 c 0,-0.049 0.05,-0.0805 0.127,-0.0805 0.068,0 0.133,0.015 0.194,0.044 L 8.714,3.2475 8.7675,3.0525 8.76,3.049 C 8.6875,3.0165 8.6045,3 8.5125,3 8.2915,3 8.143,3.1195 8.143,3.2965 c 0,0.131 0.0905,0.229 0.2675,0.2905 0.1135,0.0405 0.152,0.072 0.152,0.1235 0,0.0585 -0.051,0.0915 -0.1395,0.0915 z M 5.415,3.3225 5.7605,3.986 l 0.2425,0 0,-0.9705 -0.219,0 0,0.5945 -0.32,-0.5945 -0.268,0 0,0.9705 0.219,0 0,-0.6635 z M 3,12 3,2 11,2 11,7.7715 C 11,9.825 8,9 8,9 8,9 8.759,12 6.681,12 L 3,12 Z M 12,8.193 12,1 2,1 2,13 7.0945,13 C 8.676,13 12,9.3885 12,8.193 Z"/></svg>