<svg xmlns="http://www.w3.org/2000/svg" viewBox="0 0 14 14" id="libre-binoculars"><path d="M 9.4355,2.656 C 9.2945,2.274 8.9305,2 8.5,2 7.851,2 7.343,2.622 7.548,3.291 8.1035,3.0935 8.721,2.74 9.4355,2.656 Z M 13,9.5 C 13,10.8805 11.881,12 10.5,12 8.4805,12 8.422,9.9385 7,9.9385 5.578,9.9385 5.5195,12 3.5,12 2.119,12 1,10.8805 1,9.5 1,8.4325 1.948,6.2915 2.9705,4.0895 3.7865,2.3325 5.3475,3.4595 6.378,3.797 6.7685,3.925 7.205,3.933 7.621,3.797 8.6515,3.46 10.215,2.3315 11.0285,4.0895 12.028,6.247 13,8.4325 13,9.5 Z m -8,0 C 5,8.673 4.327,8 3.5,8 2.673,8 2,8.673 2,9.5 2,10.327 2.673,11 3.5,11 4.327,11 5,10.327 5,9.5 Z m 2.5,-1 C 7.5,8.224 7.2765,8 7,8 6.7235,8 6.5,8.224 6.5,8.5 6.5,8.776 6.7235,9 7,9 7.2765,9 7.5,8.776 7.5,8.5 Z m 4.5,1 C 12,8.673 11.327,8 10.5,8 9.673,8 9,8.673 9,9.5 9,10.327 9.673,11 10.5,11 11.327,11 12,10.327 12,9.5 Z M 5.5,2 C 5.0695,2 4.7055,2.274 4.5645,2.656 5.279,2.74 5.8965,3.0935 6.452,3.291 6.6565,2.622 6.149,2 5.5,2 Z"/></svg>