<svg xmlns="http://www.w3.org/2000/svg" viewBox="0 0 14 14" id="libre-seo-moz"><path d="m 7.1692626,8.8357138 c -0.252949,-0.018 -0.596452,-0.1167 -0.837667,-0.2405 -0.289627,-0.1486 -0.584646,-0.4047 -0.735131,-0.638 -0.04013,-0.062 -0.07962,-0.1133 -0.08775,-0.1134 -0.0081,-1e-4 -0.01478,0.1152 -0.01478,0.2561 l 0,0.2562 -0.46318,0 -0.463181,0 0,-0.6516 c 0,-0.4239 -0.0068,-0.6473 -0.01947,-0.6395 -0.01815,0.011 -0.376987,0.4503 -0.90619,1.1088 l -0.225705,0.2809 -0.11909,-0.001 -0.119089,-10e-4 -0.611004,-0.7013 -0.611004,-0.7014 -0.0099,0.6484 -0.0099,0.6485 -0.468108,0 -0.468108,0.01 0,-1.3604 0,-1.3603 0.499782,0 0.499781,0 0.589186,0.6825 c 0.324052,0.3753 0.608346,0.7057 0.631765,0.7342 0.02342,0.028 0.04636,0.047 0.05097,0.042 0.0046,0 0.132313,-0.1828 0.283771,-0.3942 0.151457,-0.2114 0.38515,-0.5374 0.519318,-0.7244 l 0.243941,-0.3399 0.587658,0 0.587659,0 0,0.2562 c 0,0.1409 0.0067,0.2561 0.01478,0.256 0.0081,-10e-5 0.04762,-0.051 0.08775,-0.1133 0.150485,-0.2334 0.445504,-0.4894 0.735131,-0.6381 0.162774,-0.083 0.424094,-0.1729 0.630714,-0.2157 0.152113,-0.032 0.652167,-0.032 0.817957,-3e-4 0.478764,0.091 0.83946,0.2819 1.177661,0.6246 l 0.202026,0.2047 0,-0.1871 0,-0.187 1.9233494,0 c 1.070214,0 1.920435,0.01 1.916778,0.017 -0.0036,0.01 -0.392389,0.4139 -0.863945,0.8991 -0.471558,0.4851 -0.860334,0.8899 -0.863947,0.8995 -0.0037,0.01 0.33132,0.017 0.77361,0.017 l 0.78018,0 0,0.4435 0,0.4434 -1.951272,0 c -1.0731994,0 -1.9512714,-0.01 -1.9512714,-0.015 0,-0.01 0.38582,-0.4006 0.857377,-0.872 0.4715574,-0.4715 0.8573774,-0.8639 0.8573774,-0.8721 0,-0.01 -0.275914,-0.015 -0.613141,-0.015 l -0.6131414,0 0.014,0.054 c 0.0077,0.03 0.02009,0.1231 0.02754,0.2074 0.06656,0.7533 -0.369294,1.4506 -1.121931,1.795 -0.359384,0.1645 -0.731656,0.2275 -1.162249,0.1968 z m 0.473607,-1.0682 c 0.190313,-0.054 0.290491,-0.1127 0.42453,-0.2468 0.350797,-0.3511 0.283112,-0.8988 -0.14631,-1.1839 -0.514153,-0.3413 -1.271382,-0.1024 -1.432553,0.452 -0.0424,0.1459 -0.03073,0.3354 0.03035,0.4931 0.05348,0.1382 0.233231,0.332 0.374828,0.4043 0.230142,0.1174 0.514739,0.1483 0.74916,0.081 z"/></svg>