<svg
   xmlns="http://www.w3.org/2000/svg"
   viewBox="0 0 100 100"
   id="tasmania"
>
  <path
     style="fill:#d1e2a3"
     d="m 43.727928,98.6237 c 0.61158,-0.9895 -0.37279,-1.1777 -3.50317,-0.6697 -3.9828,0.6463 -4.25184,0.5161 -3.15755,-1.5286 0.65792,-1.2294 3.60436,-3.9646 6.54764,-6.0783 2.9433,-2.1137 5.13697,-4.0576 4.87484,-4.3197 -0.26213,-0.2621 -5.17937,2.2106 -10.9272,5.495 -5.74784,3.2843 -10.88962,5.7002 -11.42619,5.3686 -1.98287,-1.2255 -0.83315,-2.9035 4.94491,-7.2173 6.36154,-4.7493 7.11337,-6.4032 1.63062,-3.5871 -1.86144,0.9561 -5.54602,1.764 -8.18795,1.7954 -4.16651,0.049 -5.00363,-0.3952 -6.31258,-3.3523 -1.94483,-4.3936 -0.59856,-6.6421 7.13791,-11.9214 8.41409,-5.7418 9.70692,-7.9638 2.51233,-4.318 -7.4311,3.7656 -7.91802,3.8174 -7.11778,0.7573 0.40467,-1.5474 0.0366,-2.3809 -1.05164,-2.3809 -3.74561,0 -1.23826,-3.6736 6.06384,-8.8842 10.90669,-7.7829 10.17662,-8.241 -2.51591,-1.5787 l -6.08733,3.1953 -1.39771,-3.0677 c -0.76875,-1.6872 -1.11445,-3.3509 -0.76824,-3.6971 0.34622,-0.3462 0.0799,-1.2917 -0.59175,-2.101 -0.84901,-1.023 -0.75515,-1.9748 0.30794,-3.1228 0.84106,-0.9082 2.58608,-2.8801 3.87782,-4.382 l 2.34862,-2.7308 -3.24148,0.8135 c -2.52198,0.633 -3.24148,0.3886 -3.24148,-1.1012 0,-1.1211 -0.98688,-1.9147 -2.38096,-1.9147 -1.82072,0 -2.3809501,-0.7937 -2.3809501,-3.3731 0,-1.8551 0.3671401,-3.7401 0.8158801,-4.1889 0.44873,-0.4487 1.44743,-2.6529 2.21932,-4.8982 l 1.40345,-4.0823 -3.4098,0.6819 c -4.1493901,0.8299 -4.1637901,0.6289 -0.43361,-6.0525 1.6369,-2.932 2.97619,-6.3329 2.97619,-7.5576 0,-2.2202 6.61906,-9.5452 7.67295,-8.4913 0.74508,0.7451 -2.73879,10.7187 -4.49259,12.8614 -1.14532,1.3993 -0.969,1.5745 0.98631,0.9801 8.70032,-2.6451 8.15588,-2.7062 7.27175,0.8164 -0.69467,2.7678 -0.49702,3.1543 1.31833,2.5781 2.36872,-0.7518 9.8623,4.8985 9.8623,7.4364 0,1.1045 0.96512,0.9493 3.5348,-0.5687 4.08348,-2.4121 5.9736,-1.392 3.81751,2.0605 -1.45227,2.3254 -1.40131,2.3358 2.23585,0.4549 4.10577,-2.1231 7.0785,-1.6249 7.0785,1.1864 0,2.1584 0.56218,2.2431 3.70891,0.5591 1.72457,-0.923 3.30962,-0.8446 5.87411,0.2906 1.93173,0.855 3.51222,1.9283 3.51222,2.3849 0,0.4567 -3.24705,3.3289 -7.21566,6.3826 -3.96862,3.0538 -6.98219,5.7858 -6.69682,6.0712 0.28537,0.2854 7.40014,-3.5211 15.8106,-8.4589 14.92942,-8.7651 18.33998,-10.2132 18.33998,-7.7873 0,0.6547 1.07143,1.1904 2.38095,1.1904 5.03044,0 1.88937,3.4455 -11.3517,12.4518 -20.0627,13.6462 -19.32887,14.6234 1.66206,2.2132 12.86666,-7.607 13.02339,-7.6793 13.82571,-6.3811 0.39002,0.631 -0.92254,2.6012 -2.91678,4.3781 -3.4494,3.0734 -4.34746,7.2257 -2.05796,9.5152 1.71765,1.7177 0.62137,2.9644 -8.38752,9.5384 -12.42509,9.067 -13.05318,9.9179 -3.53045,4.7827 14.37752,-7.7532 15.87693,-3.8448 2.02933,5.2896 -2.73374,1.8033 -2.77959,2.0182 -0.84367,3.9541 2.82712,2.8271 2.59339,3.9936 -1.52426,7.6067 -2.90643,2.5504 -3.57143,4.0671 -3.57143,8.1457 0,4.0241 -0.48606,5.1661 -2.46626,5.7946 -1.52896,0.4853 -3.26125,0.063 -4.55803,-1.1102 -2.60454,-2.3571 -4.17535,-2.3914 -6.05045,-0.132 -1.53837,1.8536 -7.96137,5.3818 -9.79747,5.3818 -0.59281,0 -0.69976,-0.6696 -0.23768,-1.4881 0.67211,-1.1905 0.51949,-1.1905 -0.76308,0 -2.02667,1.8811 -5.13576,1.9683 -3.98839,0.1118 z"
/>
  <path
     style="fill:#b0d9c7"
     d="m 43.727928,98.6237 c 0.61158,-0.9895 -0.37279,-1.1777 -3.50317,-0.6697 -3.9828,0.6463 -4.25184,0.5161 -3.15755,-1.5286 0.65792,-1.2294 3.60436,-3.9646 6.54764,-6.0783 2.9433,-2.1137 5.13697,-4.0576 4.87484,-4.3197 -0.26213,-0.2621 -5.17937,2.2106 -10.9272,5.495 -5.74784,3.2843 -10.88962,5.7002 -11.42619,5.3686 -1.98287,-1.2255 -0.83315,-2.9035 4.94491,-7.2173 6.36154,-4.7493 7.11337,-6.4032 1.63062,-3.5871 -1.86144,0.9561 -5.54602,1.764 -8.18795,1.7954 -4.16651,0.049 -5.00363,-0.3952 -6.31258,-3.3523 -1.94483,-4.3936 -0.59856,-6.6421 7.13791,-11.9214 7.46768,-5.096 10.40903,-8.3628 5.02197,-5.5778 -2.04496,1.0572 -4.0539,1.5864 -4.46429,1.176 -0.41039,-0.4104 -0.74617,-0.09 -0.74617,0.713 0,0.8025 -0.54446,1.1226 -1.20989,0.7114 -0.66544,-0.4113 -0.85053,-1.3293 -0.4113,-2.0399 0.46543,-0.7531 0.24691,-0.9512 -0.52383,-0.4749 -0.72733,0.4495 -1.02065,1.6037 -0.65181,2.5649 0.36884,0.9612 0.0776,1.7476 -0.64723,1.7476 -0.72481,0 -1.30964,-0.6697 -1.29961,-1.4881 0.0296,-2.4161 2.00105,-4.8283 3.29338,-4.0296 0.65826,0.4068 5.67351,-2.7104 11.145,-6.9271 13.079,-10.0797 27.02663,-19.4104 37.3291,-24.9726 l 8.33333,-4.4991 -5.95238,5.4703 -5.95238,5.4702 8.8645,-4.7879 c 4.87546,-2.6333 9.69689,-4.5017 10.71428,-4.1519 1.17815,0.405 1.01074,-0.014 -0.46107,-1.1527 -2.26972,-1.7568 -2.26629,-1.7887 0.19227,-1.7887 2.3303,0 3.25593,2.7099 1.0912,3.1946 -0.53633,0.1201 -1.71289,1.1915 -2.61459,2.3809 -0.90169,1.1895 -1.65647,1.6584 -1.6773,1.0422 -0.0209,-0.6162 -0.70751,-0.2973 -1.52595,0.7086 -0.81846,1.006 -5.90775,4.8953 -11.30953,8.6429 -15.06255,10.4501 -12.28461,9.9076 6.67941,-1.3042 12.86666,-7.607 13.02339,-7.6793 13.82571,-6.3811 0.39002,0.631 -0.92254,2.6012 -2.91678,4.3781 -3.4494,3.0734 -4.34746,7.2257 -2.05796,9.5152 1.71765,1.7177 0.62137,2.9644 -8.38752,9.5384 -12.42509,9.067 -13.05318,9.9179 -3.53045,4.7827 14.37752,-7.7532 15.87693,-3.8448 2.02933,5.2896 -2.73374,1.8033 -2.77959,2.0182 -0.84367,3.9541 2.82712,2.8271 2.59339,3.9936 -1.52426,7.6067 -2.90643,2.5504 -3.57143,4.0671 -3.57143,8.1457 0,4.0241 -0.48606,5.1661 -2.46626,5.7946 -1.52896,0.4853 -3.26125,0.063 -4.55803,-1.1102 -2.60454,-2.3571 -4.17535,-2.3914 -6.05045,-0.132 -1.53837,1.8536 -7.96137,5.3818 -9.79747,5.3818 -0.59281,0 -0.69976,-0.6696 -0.23768,-1.4881 0.67211,-1.1905 0.51949,-1.1905 -0.76308,0 -2.02667,1.8811 -5.13576,1.9683 -3.98839,0.1118 z m -22.1929,-36.0583 c 2.01056,-2.4226 12.45318,-8.994 14.29235,-8.994 2.62037,0 -1.00995,3.4459 -7.63197,7.2442 -6.62081,3.7976 -8.84485,4.3819 -6.66038,1.7498 z m -3.86641,-8.1011 c -0.30121,-0.8185 1.66307,-3.5377 4.36508,-6.0428 4.59528,-4.2603 4.47686,-4.6713 -0.74203,-2.575 -1.14583,0.4603 -2.08333,0.3061 -2.08333,-0.3425 0,-1.896 9.33307,-9.7871 11.61057,-9.8167 1.14394,-0.015 5.53717,-1.8899 9.76274,-4.1667 4.22555,-2.2768 8.10947,-4.1396 8.63095,-4.1396 2.27375,0 0.52699,2.1871 -5.10464,6.3915 -3.32903,2.4853 -5.78845,4.7831 -5.46538,5.1062 0.32307,0.3231 4.63972,-1.6367 9.59258,-4.355 6.08462,-3.3394 9.78765,-4.694 11.41776,-4.1766 1.32691,0.4212 2.41256,1.262 2.41256,1.8685 0,1.7111 -9.21461,7.9748 -14.08208,9.5724 -2.40367,0.7889 -9.50575,4.2987 -15.7824,7.7994 -12.05864,6.7256 -13.65487,7.2613 -14.53238,4.8769 z m 1.83734,-18.3674 c 4.50798,-4.8044 4.10209,-5.6155 -1.40437,-2.8063 -4.34988,2.2192 -4.70739,2.2418 -5.09446,0.3218 -0.8451,-4.1918 4.01349,-14.1311 6.2362,-12.7574 0.52563,0.3248 2.20605,0.1152 3.73427,-0.4658 3.81428,-1.4502 6.72896,1.3999 4.36572,4.2691 -1.4174,1.7208 -1.22019,1.8356 1.84194,1.0727 3.42616,-0.8536 3.42471,-0.8492 -1.58844,4.8621 -2.75977,3.144 -6.44581,6.4536 -8.19121,7.3546 l -3.17346,1.6382 3.27381,-3.489 z m 12.79762,-4.2115 c 0,-0.8856 1.55587,-2.5292 3.45748,-3.6525 6.26939,-3.7034 6.32616,-1.704 0.0779,2.7451 -2.52398,1.7973 -3.53543,2.0568 -3.53543,0.9074 z M 8.7483479,20.0057 c 2.0173001,-3.0382 4.5076101,-4.1881 4.5076101,-2.0814 0,1.5274 -3.4251101,4.592 -5.2047301,4.6569 -0.57094,0.021 -0.25723,-1.1381 0.69712,-2.5755 z m 9.2695101,-2.7019 c 0,-0.9591 1.07143,-2.3172 2.38096,-3.0181 1.82836,-0.9785 2.38095,-0.9053 2.38095,0.3153 0,1.7498 -2.31044,4.4466 -3.80952,4.4466 -0.52381,0 -0.95239,-0.7847 -0.95239,-1.7438 z m -3.57142,-7.4884 c 0,-1.3096 0.80357,-3.0479 1.78571,-3.863 1.48607,-1.2333 1.78571,-1.0825 1.78571,0.8989 0,1.3096 -0.80357,3.0479 -1.78571,3.863 -1.48607,1.2333 -1.78571,1.0825 -1.78571,-0.8989 z m 4.7619,-8.6249 c 0,-0.6548 0.56733,-1.1905 1.26073,-1.1905 0.6934,0 0.92965,0.5357 0.52498,1.1905 -0.40466,0.6548 -0.972,1.1905 -1.26073,1.1905 -0.28874,0 -0.52498,-0.5357 -0.52498,-1.1905 z"
/>
  <path
     style="fill:#cddd6d"
     d="m 44.208338,98.6474 c 0,-0.7405 1.08206,-1.0231 2.49871,-0.6526 1.37428,0.3594 2.16696,0.3217 1.7615,-0.084 -0.40547,-0.4055 1.28261,-2.8516 3.75129,-5.4358 l 4.4885,-4.6987 -8.09726,4.4629 c -4.45348,2.4546 -8.38947,4.1707 -8.74664,3.8135 -0.89735,-0.8973 13.52417,-11.4179 18.62961,-13.5904 2.29167,-0.9751 7.05497,-3.0845 10.5851,-4.6874 8.65965,-3.9321 10.64162,-2.1309 4.53572,4.1221 -3.47805,3.5619 -4.40653,5.4428 -4.40653,8.9268 0,4.9881 -0.93978,5.4792 -3.89045,2.0331 -2.77618,-3.2423 -3.69756,-3.0481 -9.22376,1.9445 -4.64863,4.1998 -11.88579,6.5414 -11.88579,3.8458 z M 28.732148,93.47 c 1.96441,-2.4355 18.73246,-13.7081 20.39084,-13.7081 0.57075,0 1.03773,0.4842 1.03773,1.0759 0,1.1021 -17.32509,12.6385 -21.11196,14.058 -1.90774,0.7152 -1.93705,0.5832 -0.31661,-1.4258 z m -8.33333,-8.0834 c 0,-0.7527 1.47321,-2.601 3.27381,-4.1073 l 3.27381,-2.7387 -3.27884,1.3993 c -4.22897,1.8047 -5.46342,0.5238 -2.57313,-2.6699 2.79087,-3.0839 20.63522,-14.1747 22.80606,-14.1747 2.16129,0 11.23392,-4.6907 25.17177,-13.014 6.43317,-3.8418 13.45449,-7.894 15.60294,-9.005 l 3.90625,-2.0201 -2.34311,3.3886 c -1.76018,2.5455 -2.13336,4.3555 -1.49999,7.2753 0.97523,4.4956 -0.36021,5.9151 -13.9595,14.8376 -9.61533,6.3086 -11.30212,7.2012 -28.35626,15.0045 -13.31318,6.0917 -22.02381,8.3953 -22.02381,5.8244 z m 42.85714,-9.0947 c 0,-1.4232 9.92606,-8.6277 16.36905,-11.8809 5.20133,-2.6262 6.66357,-2.2809 2.97619,0.7028 -3.28489,2.658 -17.90233,12.2672 -18.66084,12.2672 -0.37642,0 -0.6844,-0.4901 -0.6844,-1.0891 z m -40.00053,-8.1371 c 5.99601,-6.1361 36.56961,-27.4709 48.9291,-34.1436 l 8.33333,-4.499 -5.95238,5.4702 -5.95238,5.4702 8.40953,-4.5378 c 14.16064,-7.641 16.18358,-7.7916 6.17381,-0.4594 -9.36819,6.8623 -27.43254,17.7377 -29.46429,17.7387 -0.98214,5e-4 -7.93249,3.5677 -15.4452,7.9272 -12.26351,7.1163 -17.51243,9.5723 -15.03152,7.0335 z m -1.7204,-5.5894 c 2.01056,-2.4226 12.45318,-8.994 14.29235,-8.994 2.62037,0 -1.00995,3.4459 -7.63197,7.2442 -6.62081,3.7976 -8.84485,4.3819 -6.66038,1.7498 z m -3.86641,-8.1011 c -0.30121,-0.8185 1.66307,-3.5377 4.36508,-6.0428 4.59528,-4.2603 4.47686,-4.6713 -0.74203,-2.575 -1.14583,0.4603 -2.08333,0.3061 -2.08333,-0.3425 0,-1.896 9.33307,-9.7871 11.61057,-9.8167 1.14394,-0.015 5.53717,-1.8899 9.76274,-4.1667 4.22555,-2.2768 8.10947,-4.1396 8.63095,-4.1396 2.27375,0 0.52699,2.1871 -5.10464,6.3915 -3.32903,2.4853 -5.78845,4.7831 -5.46538,5.1062 0.32307,0.3231 4.63972,-1.6367 9.59258,-4.355 6.08462,-3.3394 9.78765,-4.694 11.41776,-4.1766 1.32691,0.4212 2.41256,1.262 2.41256,1.8685 0,1.7111 -9.21461,7.9748 -14.08208,9.5724 -2.40367,0.7889 -9.50575,4.2987 -15.7824,7.7994 -12.05864,6.7256 -13.65487,7.2613 -14.53238,4.8769 z m 1.83734,-18.3674 c 4.50798,-4.8044 4.10209,-5.6155 -1.40437,-2.8063 -4.34988,2.2192 -4.70739,2.2418 -5.09446,0.3219 -0.8451,-4.1919 4.01349,-14.1312 6.2362,-12.7575 0.52563,0.3248 2.20605,0.1152 3.73427,-0.4658 3.81428,-1.4502 6.72896,1.4 4.36572,4.2691 -1.4174,1.7208 -1.22019,1.8356 1.84194,1.0727 3.42616,-0.8536 3.42471,-0.8492 -1.58844,4.8621 -2.75977,3.144 -6.44581,6.4536 -8.19121,7.3546 l -3.17346,1.6382 3.27381,-3.489 z m 12.79762,-4.2115 c 0,-0.8856 1.55587,-2.5292 3.45748,-3.6525 6.26939,-3.7034 6.32616,-1.704 0.0779,2.7451 -2.52398,1.7973 -3.53543,2.0568 -3.53543,0.9074 z M 8.7483479,20.0057 c 2.0173001,-3.0382 4.5076101,-4.1881 4.5076101,-2.0814 0,1.5274 -3.4251101,4.592 -5.2047301,4.6569 -0.57094,0.021 -0.25723,-1.1381 0.69712,-2.5755 z m 9.2695101,-2.7019 c 0,-0.9591 1.07143,-2.3172 2.38096,-3.0181 1.82836,-0.9785 2.38095,-0.9053 2.38095,0.3153 0,1.7498 -2.31044,4.4466 -3.80952,4.4466 -0.52381,0 -0.95239,-0.7847 -0.95239,-1.7438 z m -3.57142,-7.4884 c 0,-1.3096 0.80357,-3.0479 1.78571,-3.863 1.48607,-1.2333 1.78571,-1.0825 1.78571,0.8989 0,1.3096 -0.80357,3.0479 -1.78571,3.863 -1.48607,1.2333 -1.78571,1.0825 -1.78571,-0.8989 z m 4.7619,-8.6249 c 0,-0.6548 0.56733,-1.1905 1.26073,-1.1905 0.6934,0 0.92965,0.5357 0.52498,1.1905 -0.40466,0.6548 -0.972,1.1905 -1.26073,1.1905 -0.28874,0 -0.52498,-0.5357 -0.52498,-1.1905 z"
/>
  <path
     style="fill:#a5cea3"
     d="m 44.208338,98.6474 c 0,-0.7405 1.08206,-1.0231 2.49871,-0.6526 1.37428,0.3594 2.16696,0.3217 1.7615,-0.084 -0.40547,-0.4055 1.28261,-2.8516 3.75129,-5.4358 l 4.4885,-4.6987 -8.09726,4.4629 c -4.45348,2.4546 -8.38947,4.1707 -8.74664,3.8135 -0.89735,-0.8973 13.52417,-11.4179 18.62961,-13.5904 2.29167,-0.9751 7.05497,-3.0845 10.5851,-4.6874 8.65965,-3.9321 10.64162,-2.1309 4.53572,4.1221 -3.47805,3.5619 -4.40653,5.4428 -4.40653,8.9268 0,4.9881 -0.93978,5.4792 -3.89045,2.0331 -2.77618,-3.2423 -3.69756,-3.0481 -9.22376,1.9445 -4.64863,4.1998 -11.88579,6.5414 -11.88579,3.8458 z M 28.732148,93.47 c 1.96441,-2.4355 18.73246,-13.7081 20.39084,-13.7081 0.57075,0 1.03773,0.4842 1.03773,1.0759 0,1.1021 -17.32509,12.6385 -21.11196,14.058 -1.90774,0.7152 -1.93705,0.5832 -0.31661,-1.4258 z m -8.33333,-8.0834 c 0,-0.7527 1.47321,-2.601 3.27381,-4.1073 l 3.27381,-2.7387 -3.27884,1.3993 c -4.22897,1.8047 -5.46342,0.5238 -2.57313,-2.6699 2.79087,-3.0839 20.63522,-14.1747 22.80606,-14.1747 2.16129,0 11.23392,-4.6907 25.17177,-13.014 6.43317,-3.8418 13.45449,-7.894 15.60294,-9.005 l 3.90625,-2.0201 -2.34311,3.3886 c -1.76018,2.5455 -2.13336,4.3555 -1.49999,7.2753 0.97523,4.4956 -0.36021,5.9151 -13.9595,14.8376 -9.61533,6.3086 -11.30212,7.2012 -28.35626,15.0045 -13.31318,6.0917 -22.02381,8.3953 -22.02381,5.8244 z m 42.85714,-9.0947 c 0,-1.4232 9.92606,-8.6277 16.36905,-11.8809 5.20133,-2.6262 6.66357,-2.2809 2.97619,0.7028 -3.28489,2.658 -17.90233,12.2672 -18.66084,12.2672 -0.37642,0 -0.6844,-0.4901 -0.6844,-1.0891 z m -40.00053,-8.1371 c 5.99601,-6.1361 36.56961,-27.4709 48.9291,-34.1436 l 8.33333,-4.499 -5.95238,5.4702 -5.95238,5.4702 8.40953,-4.5378 c 14.16064,-7.641 16.18358,-7.7916 6.17381,-0.4594 -9.36819,6.8623 -27.43254,17.7377 -29.46429,17.7387 -0.98214,5e-4 -7.93249,3.5677 -15.4452,7.9272 -12.26351,7.1163 -17.51243,9.5723 -15.03152,7.0335 z m -1.7204,-5.5894 c 2.01056,-2.4226 12.45318,-8.994 14.29235,-8.994 2.62037,0 -1.00995,3.4459 -7.63197,7.2442 -6.62081,3.7976 -8.84485,4.3819 -6.66038,1.7498 z m -3.91812,-8.3217 c -0.41716,-1.0871 1.50293,-3.3549 5.27813,-6.2339 6.22021,-4.7436 6.20105,-6.6332 -0.0346,-3.4087 -2.00867,1.0388 -3.65213,1.3842 -3.65213,0.7676 0,-1.5013 8.87119,-8.4639 10.78404,-8.4639 0.83207,0 5.49118,-2.1835 10.35359,-4.8521 4.86241,-2.6687 9.08134,-4.6115 9.3754,-4.3174 0.29407,0.294 -2.1868,2.8132 -5.51303,5.598 -3.32623,2.7849 -5.80709,5.3041 -5.51304,5.5981 0.29407,0.2941 4.587,-1.6894 9.53986,-4.4077 6.08462,-3.3394 9.78765,-4.694 11.41776,-4.1766 1.32691,0.4212 2.41256,1.262 2.41256,1.8685 0,1.7111 -9.21461,7.9748 -14.08208,9.5724 -2.40367,0.7889 -9.50574,4.2987 -15.7824,7.7994 -12.29397,6.8568 -13.58187,7.268 -14.58409,4.6563 z"
/>
  <path
     style="fill:#a9cb6d"
     d="m 44.973848,98.534 c 0.3662,-0.5925 1.41519,-0.7897 2.3311,-0.4382 0.94512,0.3626 1.6653,-0.092 1.6653,-1.0521 0,-0.9302 2.41893,-3.3555 5.3754,-5.3896 2.95647,-2.0341 6.24676,-5.0282 7.31174,-6.6536 1.95594,-2.9851 10.75626,-8.81 13.3103,-8.81 2.62797,0 1.37174,3.4177 -2.18792,5.9524 -2.93152,2.0874 -3.57143,3.3817 -3.57143,7.2239 0,4.9397 -1.12064,5.8481 -3.57143,2.8951 -2.33164,-2.8094 -4.90522,-2.129 -9.71646,2.5691 -2.89612,2.828 -5.7136,4.4294 -8.03606,4.5675 -1.96698,0.1171 -3.27673,-0.272 -2.91054,-0.8645 z m -1.12092,-5.8438 c 0.77568,-0.9347 3.71761,-2.9866 6.53763,-4.56 3.92982,-2.1925 4.72885,-2.3712 3.42123,-0.7655 -0.93834,1.1523 -3.88028,3.2042 -6.53763,4.5599 -3.05088,1.5565 -4.31178,1.8386 -3.42123,0.7656 z m -9.1684,-3.4045 c 3.89052,-3.0432 6.20399,-3.0072 2.54669,0.04 -1.54576,1.2878 -3.42076,2.3295 -4.16667,2.3149 -0.74591,-0.015 -0.017,-1.0741 1.61998,-2.3545 z m -1.66671,-11.6655 c 19.85473,-14.2495 34.51784,-22.5468 48.09528,-27.2154 1.86938,-0.6428 -2.66378,3.8709 -7.37535,7.3437 -1.92218,1.4167 -2.27816,2.1999 -1.18891,2.6155 1.67102,0.6375 -5.08698,6.3027 -7.51855,6.3027 -0.73399,0 -5.9352,2.4073 -11.55824,5.3497 -5.62303,2.9423 -12.13664,5.5946 -14.47468,5.8939 -2.33804,0.2994 -5.30111,1.1063 -6.5846,1.7932 -4.36518,2.3362 -4.05244,1.2594 0.60505,-2.0833 z m -6.83236,-2.553 c 1.54576,-1.3465 3.42076,-2.4399 4.16667,-2.4299 1.42069,0.019 -0.55775,1.5947 -4.59617,3.6603 -1.87115,0.957 -1.77919,0.6936 0.4295,-1.2304 z m 45.94353,-4.7392 c 0.44097,-0.7135 2.43389,-2.1413 4.42873,-3.1729 1.99483,-1.0315 3.26617,-1.2918 2.8252,-0.5783 -0.44096,0.7135 -2.43388,2.1413 -4.42872,3.1729 -1.99483,1.0315 -3.26617,1.2918 -2.82521,0.5783 z m -54.11113,-17.15 c 0,-0.8711 2.50643,-3.3839 5.56984,-5.5839 5.89752,-4.2352 5.42618,-6.175 -0.72723,-2.993 -2.00867,1.0388 -3.65213,1.3842 -3.65213,0.7676 0,-1.5013 8.87119,-8.4639 10.78404,-8.4639 0.83207,0 5.49118,-2.1835 10.35359,-4.8521 4.86241,-2.6687 9.08134,-4.6115 9.3754,-4.3174 0.29407,0.294 -2.1868,2.8132 -5.51303,5.598 -3.32623,2.7849 -5.79269,5.3185 -5.48101,5.6302 0.31168,0.3116 4.8683,-1.7568 10.12582,-4.5964 7.87595,-4.254 9.82837,-4.8872 11.08811,-3.5958 1.25164,1.2831 0.79287,2.1878 -2.52916,4.9879 -2.23198,1.8812 -5.44626,3.7286 -7.14285,4.1053 -1.6966,0.3767 -8.70128,3.8827 -15.56598,7.7912 -12.48198,7.1066 -16.68541,8.4978 -16.68541,5.5223 z"
/>
  <path
     style="fill:#6cb895"
     d="m 44.973848,98.534 c 0.3662,-0.5925 1.41519,-0.7897 2.3311,-0.4382 0.94512,0.3626 1.6653,-0.092 1.6653,-1.0521 0,-0.9302 2.41893,-3.3555 5.3754,-5.3896 2.95647,-2.0341 6.24676,-5.0282 7.31174,-6.6536 1.95594,-2.9851 10.75626,-8.81 13.3103,-8.81 2.62797,0 1.37174,3.4177 -2.18792,5.9524 -2.93152,2.0874 -3.57143,3.3817 -3.57143,7.2239 0,4.9397 -1.12064,5.8481 -3.57143,2.8951 -2.33164,-2.8094 -4.90522,-2.129 -9.71646,2.5691 -2.89612,2.828 -5.7136,4.4294 -8.03606,4.5675 -1.96698,0.1171 -3.27673,-0.272 -2.91054,-0.8645 z m -1.12092,-5.8438 c 0.77568,-0.9347 3.71761,-2.9866 6.53763,-4.56 3.92982,-2.1925 4.72885,-2.3712 3.42123,-0.7655 -0.93834,1.1523 -3.88028,3.2042 -6.53763,4.5599 -3.05088,1.5565 -4.31178,1.8386 -3.42123,0.7656 z m -9.1684,-3.4045 c 3.89052,-3.0432 6.20399,-3.0072 2.54669,0.04 -1.54576,1.2878 -3.42076,2.3295 -4.16667,2.3149 -0.74591,-0.015 -0.017,-1.0741 1.61998,-2.3545 z m -1.66671,-11.6655 c 19.85473,-14.2495 34.51784,-22.5468 48.09528,-27.2154 1.86938,-0.6428 -2.66378,3.8709 -7.37535,7.3437 -1.92218,1.4167 -2.27816,2.1999 -1.18891,2.6155 1.67102,0.6375 -5.08698,6.3027 -7.51855,6.3027 -0.73399,0 -5.9352,2.4073 -11.55824,5.3497 -5.62303,2.9423 -12.13664,5.5946 -14.47468,5.8939 -2.33804,0.2994 -5.30111,1.1063 -6.5846,1.7932 -4.36518,2.3362 -4.05244,1.2594 0.60505,-2.0833 z m -6.83236,-2.553 c 1.54576,-1.3465 3.42076,-2.4399 4.16667,-2.4299 1.42069,0.019 -0.55775,1.5947 -4.59617,3.6603 -1.87115,0.957 -1.77919,0.6936 0.4295,-1.2304 z m 45.94353,-4.7392 c 0.44097,-0.7135 2.43389,-2.1413 4.42873,-3.1729 1.99483,-1.0315 3.26617,-1.2918 2.8252,-0.5783 -0.44096,0.7135 -2.43388,2.1413 -4.42872,3.1729 -1.99483,1.0315 -3.26617,1.2918 -2.82521,0.5783 z"
/>
  <path
     style="fill:#6eb37b"
     d="m 26.185458,75.0672 c 1.54576,-1.3465 3.42076,-2.4399 4.16667,-2.4299 1.42069,0.019 -0.55775,1.5947 -4.59617,3.6603 -1.87115,0.957 -1.77919,0.6936 0.4295,-1.2304 z m 11.47526,0.2668 c 2.93638,-2.977 23.79938,-16.1222 27.8635,-17.5561 2.48099,-0.8754 6.86951,-2.7746 9.75226,-4.2205 6.48864,-3.2545 5.53268,-2.2862 -7.42778,7.5236 -11.11122,8.4101 -17.4305,11.9937 -23.04512,13.0685 -1.96429,0.3761 -4.64286,1.068 -5.95238,1.5376 -1.60404,0.5752 -1.9925,0.46 -1.19048,-0.3531 z"
/>
</svg>
