<svg
   xmlns="http://www.w3.org/2000/svg"
   id="svg2"
   width="700"
   height="280"
   viewBox="0 0 700 280"
   sodipodi:docname="logo.svg"><g
     transform="matrix(1.25,0,0,-1.25,0,280.0001)"><g
       transform="scale(0.204499,0.204499)"><g
         transform="matrix(4.8737433,0,0,4.7901489,-587.60807,-891.16868)"
         style="fill:#000000"><text
           transform="matrix(0.99997524,-0.00713486,-0.00703698,-0.98626094,393.272,292.61)"
           style="font-variant:normal;font-weight:bold;font-size:63.2721405px;font-family:'Charlemagne Bold';-inkscape-font-specification:CharlemagneStd-Bold;writing-mode:lr-tb;fill:#000000;fill-opacity:1;fill-rule:nonzero;stroke:none"
           id="text42"><tspan
             x="0"
             y="0"
             id="tspan44"
             style="fill:#000000" /></text>
<text
           transform="scale(1,-1)"
           style="font-variant:normal;font-size:45.36869812px;font-family:Blanch;-inkscape-font-specification:Blanch-Caps;writing-mode:lr-tb;fill:#000000;fill-opacity:1;fill-rule:nonzero;stroke:none"
           id="text70"
           x="191.7878"
           y="-236.67"><tspan
             x="191.7878"
             sodipodi:role="line"
             id="tspan72"
             y="-236.67">Handmade Digital &amp; Tactile Products</tspan></text>
<text
           transform="scale(1.030539,-0.97036596)"
           style="font-variant:normal;font-weight:normal;font-size:33.05085754px;font-family:'Great Vibes';-inkscape-font-specification:GreatVibes-Regular;writing-mode:lr-tb;fill:#000000;fill-opacity:1;fill-rule:nonzero;stroke:none"
           id="text74"
           x="322.08408"
           y="-401.39822"><tspan
             x="322.08408 352.42474 363.4968 374.60187 383.16205 408.0163 419.81546 431.38324 438.39005 444.14087 450.75107"
             y="-401.39822"
             sodipodi:role="line"
             id="tspan76">Top Quality</tspan><tspan
             sodipodi:role="line"
             id="tspan78"
             x="322.08408"
             y="0.0078125"></tspan><tspan
             sodipodi:role="line"
             x="322.08408"
             y="0"
             id="tspan3874"></tspan><tspan
             sodipodi:role="line"
             x="322.08408"
             y="212.61926"
             id="tspan3876"></tspan><tspan
             sodipodi:role="line"
             x="322.08408"
             y="-nan"
             id="tspan3878"></tspan><tspan
             sodipodi:role="line"
             x="322.08408"
             y="-nan"
             id="tspan3880"> Tasmanian</tspan></text>
<text
           xml:space="preserve"
           style="font-style:normal;font-variant:normal;font-weight:bold;font-stretch:normal;font-size:8.47023582px;line-height:125%;font-family:Vegur;-inkscape-font-specification:Sans;letter-spacing:0px;word-spacing:0px;fill:#000000;fill-opacity:1;stroke:none;stroke-width:1px;stroke-linecap:butt;stroke-linejoin:miter;stroke-opacity:1"
           id="text3882"
           sodipodi:linespacing="125%"
           y="-307.64655"
           x="156.00229"
           transform="scale(1.0587797,-0.94448355)"><tspan
             sodipodi:role="line"
             id="tspan3884"
             x="156.00229"
             y="-307.64655"
             style="font-style:normal;font-variant:normal;font-weight:normal;font-stretch:normal;font-size:87.75482941px;line-height:125%;font-family:BigNoodleTitling;-inkscape-font-specification:'BigNoodleTitling, Normal';text-align:start;writing-mode:lr-tb;text-anchor:start;fill:#000000">STUDIO JUNKYARD</tspan></text>
</g><path
         d="m 2492.7898,356.70036 10.96,-19.86 22.31,-4.3 -15.53,-16.57 2.82,-22.55 -20.56,9.64 -20.57,-9.64 2.83,22.55 -15.53,16.57 22.31,4.3 10.96,19.86"
         style="fill:#000000;fill-opacity:1;fill-rule:evenodd;stroke:none"
         id="path80"
         inkscape:connector-curvature="0" /><path
         d="m 245.60989,356.70036 10.96,-19.86 22.31,-4.3 -15.53,-16.57 2.82,-22.55 -20.56,9.64 -20.57,-9.64 2.82,22.55 -15.52,16.57 22.3,4.3 10.97,19.86"
         style="fill:#000000;fill-opacity:1;fill-rule:evenodd;stroke:none"
         id="path82"
         inkscape:connector-curvature="0" /><path
         d="m 2730.1154,281.40886 c -2.99,9.7762 -6.9667,19.4055 -10.6146,28.3588 -7.2558,17.9656 -13.9933,36.2641 -20.3919,54.6607 -24.9568,71.7542 -34.2059,124.0148 -34.2059,162.1009 0,38.0274 4.2857,68.2082 15.0099,105.2853 14.4119,49.8117 32.3321,91.2479 39.5879,109.2135 3.6479,8.9142 7.6246,18.5337 10.6146,28.3099 3.0798,9.8153 5.5117,19.9246 6.9568,30.367 1.4153,10.3933 1.8539,21.1687 0.5482,32.0518 -1.3156,10.8734 -4.4153,21.7957 -9.5581,31.8952 -5.103,10.1093 -12.2591,19.2585 -20.6013,26.7817 -8.3422,7.6113 -17.8106,13.6946 -27.6577,18.4847 -9.8671,4.7901 -20.1329,8.4342 -30.578,10.9713 -5.2326,1.293 -10.4851,2.4 -15.7974,3.213 -1.3455,0.196 -2.6511,0.382 -3.9667,0.578 -0.8173,13.5475 -2.8007,27.2519 -6.9369,40.8582 -5.2525,17.4758 -14.9003,35.0592 -29.7806,48.08774 -14.8007,13.0773 -33.3588,20.4536 -51.2192,24.2446 -18.0099,3.8791 -35.8305,4.7412 -53.2723,4.5453 -34.9435,-0.3821 -68.5414,-5.1233 -101.7606,-8.5224 -33.3786,-3.4971 -66.8071,-6.5632 -100.2655,-9.2472 -66.9069,-5.8482 -133.9732,-10.2073 -201.1192,-13.9395 -67.166,-3.644 -157.4448,-6.5141 -224.8201,-8.5223 67.2656,-4.75104 157.7937,-6.08324 225.2387,-6.13224 67.465,0.049 134.9299,2.1061 202.355,5.64244 33.6976,1.969 67.3853,4.369 101.043,7.1412 33.7973,2.5371 67.0663,6.9942 99.528,7.0921 16.196,0.049 32.2126,-0.911 47.1029,-4.2612 14.9003,-3.262 28.4352,-9.1983 38.7906,-18.29864 10.4651,-9.0023 17.7109,-21.5115 22.1262,-35.6468 4.4452,-14.1257 6.2392,-29.6422 6.6179,-45.3057 l 0.2891,-12.1174 12.7774,-0.8228 c 35.0929,-2.2433 74.5513,-15.8986 90.3586,-45.7464 8.0431,-14.6546 10.2358,-32.5711 8.6611,-50.6248 -0.8173,-9.0611 -2.5415,-18.1614 -4.9236,-27.2127 -2.3522,-9.1003 -5.4418,-17.8186 -8.8106,-27.2519 -4.7641,-13.6554 -9.0498,-27.3989 -13.0266,-41.2502 2.3522,11.7844 4.6246,23.5687 6.6479,35.598 2.7309,17.1426 5.4019,34.6281 4.5847,53.3088 -0.5083,9.2961 -2.1628,18.9744 -5.4917,28.1237 -0.8273,2.2922 -1.7442,4.5061 -2.7409,6.7004 l -1.6644,3.497 c -0.5482,1.009 -0.8771,1.7241 -1.6944,3.0661 -2.7907,4.7902 -5.99,8.7183 -9.7076,12.3623 -7.4053,7.1803 -16.2159,12.1664 -25.1062,15.6635 -8.9602,3.4481 -18.0897,5.4563 -27.1495,6.7983 -9.0897,1.2931 -18.1295,1.8221 -27.1295,1.8221 -6.4485,-0.049 -12.7674,-0.2841 -19.186,-0.8621 0.4186,7.4742 0.4385,14.8504 0.1794,22.2757 -0.3688,10.1092 -1.3754,20.2087 -3.3987,30.1808 -2.0132,9.9134 -4.8837,19.7288 -9.3388,28.8781 -4.495,9.1002 -10.6046,17.5834 -18.7275,23.5686 7.0863,-7.1313 11.9003,-15.8593 15.0298,-25.0478 3.1794,-9.1983 4.9136,-18.7785 5.7608,-28.4568 0.8073,-9.6293 0.8671,-19.3565 0.3588,-29.025 -0.5382,-9.6293 -1.6246,-19.4936 -3.3887,-28.6429 l -1.4651,-7.7191 8.6511,0.333 c 16.4253,0.627 33.6677,-0.333 49.6245,-3.7812 7.9834,-1.724 15.7276,-4.124 22.7242,-7.4251 7.0166,-3.2033 13.3056,-7.3273 17.99,-12.4015 2.3023,-2.5371 4.3754,-5.4661 5.7409,-8.1502 0.279,-0.4799 0.8272,-1.7143 1.2558,-2.635 l 0.9568,-2.3412 c 0.6777,-1.7731 1.2757,-3.5461 1.804,-5.2702 2.103,-7.0921 2.9701,-14.4684 2.9501,-22.2267 0.06,-15.4284 -2.7907,-31.8559 -6.0498,-48.2344 -6.6478,-32.914 -15.3089,-65.9161 -21.887,-100.2112 -7.8239,-40.7701 -10.7043,-88.7108 -10.7043,-119.5186 0,-30.798 3.2592,-83.3036 10.7043,-122.0068 6.598,-34.2951 15.2392,-67.2972 21.887,-100.1621 3.2591,-16.3786 6.1096,-32.8061 6.0498,-48.2835 0.02,-7.7093 -0.8471,-15.0856 -2.9501,-22.1777 -0.5283,-1.7731 -1.1263,-3.5461 -1.804,-5.2701 l -0.9568,-2.3902 c -0.4286,-0.8621 -0.9768,-2.1062 -1.2558,-2.5861 -1.3655,-2.6841 -3.4386,-5.6522 -5.7409,-8.1403 -4.6844,-5.084 -10.9734,-9.2473 -17.99,-12.4603 -6.9966,-3.2522 -14.7408,-5.6522 -22.7242,-7.3762 -15.9568,-3.4971 -33.1992,-4.4571 -49.6245,-3.8303 l -8.6511,0.3332 1.4651,-7.6604 c 1.7641,-9.1982 2.8505,-19.0724 3.3887,-28.6527 0.5083,-9.6684 0.4485,-19.3957 -0.3588,-29.074 -0.8472,-9.6293 -2.5814,-19.2585 -5.7608,-28.407696 -3.1295,-9.18856 -7.9435,-17.95776 -15.0298,-25.04894 8.1229,5.98915 14.2325,14.4684 18.7275,23.52074 4.4551,9.198196 7.3256,19.013596 9.3388,28.936796 2.0233,9.9133 3.0299,20.0128 3.3987,30.1221 0.2591,7.4742 0.2392,14.8014 -0.1794,22.3246 6.4186,-0.6171 12.7375,-0.8131 19.186,-0.862 9,0 18.0398,0.529 27.1295,1.822 9.0598,1.293 18.1893,3.3502 27.1495,6.7983 8.8903,3.4971 17.7009,8.4342 25.1062,15.6145 3.7176,3.693 6.9169,7.5722 9.7076,12.3623 0.8173,1.391 1.1462,2.1061 1.6944,3.1151 l 1.6644,3.4481 c 0.9967,2.2041 1.9136,4.4571 2.7409,6.7101 3.3289,9.1493 4.9834,18.8177 5.4917,28.163 0.8172,18.6806 -1.8538,36.166 -4.5847,53.3185 -2.0233,11.9705 -4.2957,23.8038 -6.6479,35.5393 3.9768,-13.8513 8.2625,-27.5948 13.0266,-41.2013 3.3688,-9.4333 6.4584,-18.1516 8.8106,-27.3009 2.3821,-9.0023 4.1063,-18.1516 4.9236,-27.2127 1.5747,-18.0536 -0.618,-35.9212 -8.6611,-50.6247 -15.8073,-29.8478 -55.2657,-43.4444 -90.3586,-45.6975 l -12.7774,-0.813 -0.2891,-12.1664 c -0.3787,-15.6635 -2.1727,-31.1899 -6.6179,-45.315396 -4.4153,-14.13435 -11.6611,-26.58972 -22.1262,-35.59305 -10.3554,-9.14928 -23.8903,-15.04243 -38.7906,-18.34852 -14.8903,-3.30608 -30.9069,-4.3082 -47.1029,-4.26216 -32.4617,0.0951 -65.7307,4.54918 -99.528,7.13625 -33.6577,2.78201 -67.3454,5.12712 -101.043,7.14016 -67.4251,3.54314 -134.89,5.60124 -202.355,5.60124 -67.445,-0.0451 -222.5377,-1.33908 -289.7934,-6.08319 67.3753,-2.05907 222.2088,-4.88321 289.3748,-8.57133 67.146,-3.73906 134.2123,-8.05118 201.1192,-13.89437 33.4584,-2.6821 66.8869,-5.79324 100.2655,-9.29034 33.2192,-3.40208 66.8171,-8.0972196 101.7606,-8.5292096 17.4418,-0.14204 35.2624,0.7190096 53.2723,4.5530896 17.8604,3.83016 36.4185,11.16232 51.2192,24.28674 14.8803,12.97944 24.5281,30.60797 29.7806,48.04549 4.1362,13.6475 6.1196,27.351896 6.9369,40.909296 1.3156,0.1371 2.6212,0.333 3.9667,0.5681 5.3123,0.813 10.5648,1.871 15.7974,3.1641 10.4451,2.5371 20.7109,6.1811 30.578,11.0202 9.8471,4.7902 19.3155,10.8244 27.6577,18.4358 8.3422,7.5721 15.4983,16.7214 20.6013,26.8306 5.1428,10.1093 8.2425,21.0218 9.5581,31.856 1.3057,10.8733 0.8671,21.6488 -0.5482,32.091 -1.4451,10.3934 -3.877,20.5517 -6.9568,30.3181"
         style="fill:#000000;fill-opacity:1;fill-rule:nonzero;stroke:none"
         id="path84"
         inkscape:connector-curvature="0" /><path
         d="m 8.279309,281.40886 c 2.998,9.7762 6.97673,19.4055 10.61659,28.3588 7.25779,17.9656 14.0003,36.2641 20.38899,54.6607 24.95975,71.7542 34.21488,124.0148 34.21488,162.1009 0,38.0274 -4.29468,68.2082 -15.01691,105.2853 -14.40495,49.8117 -32.32917,91.2479 -39.58696,109.2135 -3.63986,8.9142 -7.61859,18.5337 -10.61659,28.3099 -3.07972,9.8153 -5.50464,19.9246 -6.9538,30.367 -1.41328997,10.3933 -1.84882997,21.1687 -0.55215997,32.0518 1.32756997,10.8734 4.42224997,21.7957 9.56210997,31.8952 5.10397,10.1093 12.2591,19.2585 20.60228,26.7817 8.34317,7.6113 17.80859,13.6946 27.65774,18.4847 9.87008,4.7901 20.13683,8.4342 30.58598,10.9713 5.22059,1.293 10.48104,2.4 15.795311,3.213 1.34253,0.196 2.64319,0.382 3.95481,0.578 0.82525,13.5475 2.80365,27.2519 6.94185,40.8582 5.24849,17.4758 14.90329,35.0592 29.78365,48.08774 14.80263,13.0773 33.36172,20.4536 51.21218,24.2446 18.01391,3.8791 35.84145,4.7412 53.2753,4.5453 34.94544,-0.3821 68.54436,-5.1233 101.76954,-8.5224 33.36969,-3.4971 66.79123,-6.5632 100.25953,-9.2472 66.9069,-5.8482 133.9732,-10.2073 201.1192,-13.9395 67.166,-3.644 157.4548,-6.5141 224.8201,-8.5223 -67.2656,-4.75104 -157.7837,-6.08324 -225.2387,-6.13224 -67.465,0.049 -134.9299,2.1061 -202.355,5.64244 -33.7076,1.969 -67.38527,4.369 -101.042,7.1412 -33.80524,2.5371 -67.06929,6.9942 -99.52702,7.0921 -16.19598,0.049 -32.20558,-0.911 -47.10488,-4.2612 -14.8993,-3.262 -28.42918,-9.1983 -38.78862,-18.29864 -10.46908,-9.0023 -17.7179,-21.5115 -22.13317,-35.6468 -4.43421,-14.1257 -6.23321,-29.6422 -6.61095,-45.3057 l -0.28406,-12.1174 -12.78136,-0.8228 c -35.093941,-2.2433 -74.556321,-15.8986 -90.358611,-45.7464 -8.04815,-14.6546 -10.23984,-32.5711 -8.65911,-50.6248 0.81727,-9.0611 2.53454,-18.1614 4.91759,-27.2127 2.34717,-9.1003 5.44285,-17.8186 8.81361,-27.2519 4.75812,-13.6554 9.0518,-27.3989 13.02754,-41.2502 -2.35614,11.7844 -4.62557,23.5687 -6.64982,35.598 -2.7289,17.1426 -5.39999,34.6281 -4.5867,53.3088 0.5103,9.2961 2.16877,18.9744 5.49766,28.1237 0.82126,2.2922 1.73223,4.5061 2.73687,6.7004 l 1.66645,3.497 c 0.54916,1.009 0.88006,1.7241 1.69733,3.0661 2.78372,4.7902 5.98404,8.7183 9.69467,12.3623 7.41227,7.1803 16.22289,12.1664 25.10725,15.6635 8.96609,3.4481 18.091661,5.4563 27.159411,6.7983 9.0827,1.2931 18.13052,1.8221 27.11655,1.8221 6.46244,-0.049 12.77339,-0.2841 19.19796,-0.8621 -0.42059,7.4742 -0.44451,14.8504 -0.18737,22.2757 0.37375,10.1092 1.37441,20.2087 3.40664,30.1808 2.02026,9.9134 4.8857,19.7288 9.33586,28.8781 4.497,9.1002 10.60961,17.5834 18.72255,23.5686 -7.07341,-7.1313 -11.90131,-15.8593 -15.02389,-25.0478 -3.17641,-9.1983 -4.9166,-18.7785 -5.76178,-28.4568 -0.80233,-9.6293 -0.87209,-19.3565 -0.35781,-29.025 0.5412,-9.6293 1.62658,-19.4936 3.3867,-28.6429 l 1.46412,-7.7191 -8.64317,0.333 c -16.43717,0.627 -33.67268,-0.333 -49.62746,-3.7812 -7.98138,-1.724 -15.732531,-4.124 -22.729191,-7.4251 -7.01959,-3.2033 -13.29864,-7.3273 -17.98999,-12.4015 -2.29335,-2.5371 -4.37641,-5.4661 -5.73886,-8.1502 -0.28106,-0.4799 -0.82923,-1.7143 -1.2578,-2.635 l -0.95781,-2.3412 c -0.66977,-1.7731 -1.26877,-3.5461 -1.799,-5.2702 -2.10996,-7.0921 -2.96611,-14.4684 -2.95116,-22.2267 -0.0538,-15.4284 2.78771,-31.8559 6.04683,-48.2344 6.65381,-32.914 15.30794,-65.9161 21.888,-100.2112 7.82888,-40.7701 10.698311,-88.7108 10.698311,-119.5186 0,-30.798 -3.251151,-83.3036 -10.698311,-122.0068 -6.59202,-34.2951 -15.23419,-67.2972 -21.888,-100.1621 -3.25912,-16.3786 -6.10065,-32.8061 -6.04683,-48.2835 -0.0149,-7.7093 0.8412,-15.0856 2.95116,-22.1777 0.53023,-1.7731 1.12923,-3.5461 1.799,-5.2701 l 0.95781,-2.3902 c 0.42857,-0.8621 0.97674,-2.1062 1.2578,-2.5861 1.36245,-2.6841 3.44551,-5.6522 5.73886,-8.1403 4.69135,-5.084 10.9704,-9.2473 17.98999,-12.4603 6.99666,-3.2522 14.747811,-5.6522 22.729191,-7.3762 15.95478,-3.4971 33.19029,-4.4571 49.62746,-3.8303 l 8.64317,0.3332 -1.46412,-7.6604 c -1.76012,-9.1982 -2.8455,-19.0724 -3.3867,-28.6527 -0.51428,-9.6684 -0.44452,-19.3957 0.35781,-29.074 0.84518,-9.6293 2.58537,-19.2585 5.76178,-28.407696 3.12258,-9.18856 7.95048,-17.95776 15.02389,-25.04894 -8.11294,5.98915 -14.22555,14.4684 -18.72255,23.52074 -4.45016,9.198196 -7.3156,19.013596 -9.33586,28.936796 -2.03223,9.9133 -3.03289,20.0128 -3.40664,30.1221 -0.25714,7.4742 -0.23322,14.8014 0.18737,22.3246 -6.42457,-0.6171 -12.73552,-0.8131 -19.19796,-0.862 -8.98603,0 -18.03385,0.529 -27.11655,1.822 -9.06775,1.293 -18.193321,3.3502 -27.159411,6.7983 -8.88436,3.4971 -17.69498,8.4342 -25.10725,15.6145 -3.71063,3.693 -6.91095,7.5722 -9.69467,12.3623 -0.81727,1.391 -1.14817,2.1061 -1.69733,3.1151 l -1.66645,3.4481 c -1.00464,2.2041 -1.91561,4.4571 -2.73687,6.7101 -3.32889,9.1493 -4.98736,18.8177 -5.49766,28.163 -0.81329,18.6806 1.8578,36.166 4.5867,53.3185 2.02425,11.9705 4.29368,23.8038 6.64982,35.5393 -3.97574,-13.8513 -8.26942,-27.5948 -13.02754,-41.2013 -3.37076,-9.4333 -6.46644,-18.1516 -8.81361,-27.3009 -2.38305,-9.0023 -4.10032,-18.1516 -4.91759,-27.2127 -1.58073,-18.0536 0.61096,-35.9212 8.65911,-50.6247 15.80229,-29.8478 55.26467,-43.4444 90.358611,-45.6975 l 12.78136,-0.813 0.28406,-12.1664 c 0.37774,-15.6635 2.17674,-31.1899 6.61095,-45.315396 4.41527,-14.13435 11.66409,-26.58972 22.13317,-35.59305 10.35944,-9.14928 23.88932,-15.04243 38.78862,-18.34852 14.8993,-3.30608 30.9089,-4.3082 47.10488,-4.26216 32.45773,0.0951 65.72178,4.54918 99.52702,7.13625 33.65673,2.78201 67.3344,5.12712 101.042,7.14016 67.4251,3.54314 134.89,5.60124 202.355,5.60124 67.455,-0.0451 222.5277,-1.33908 289.7934,-6.08319 -67.3753,-2.05907 -222.2088,-4.88321 -289.3748,-8.57133 -67.146,-3.73906 -134.2123,-8.05118 -201.1192,-13.89437 -33.4683,-2.6821 -66.88984,-5.79324 -100.25953,-9.29034 -33.22518,-3.40208 -66.8241,-8.0972196 -101.76954,-8.5292096 -17.43385,-0.14204 -35.26139,0.7190096 -53.2753,4.5530896 -17.85046,3.83016 -36.40955,11.16232 -51.21218,24.28674 -14.88036,12.97944 -24.53516,30.60797 -29.78365,48.04549 -4.1382,13.6475 -6.1166,27.351896 -6.94185,40.909296 -1.31162,0.1371 -2.61228,0.333 -3.95481,0.5681 -5.314271,0.813 -10.574721,1.871 -15.795311,3.1641 -10.44915,2.5371 -20.7159,6.1811 -30.58598,11.0202 -9.84915,4.7902 -19.31457,10.8244 -27.65774,18.4358 -8.34318,7.5721 -15.49831,16.7214 -20.60228,26.8306 -5.13986,10.1093 -8.23454,21.0218 -9.56210997,31.856 -1.29667,10.8733 -0.86113,21.6488 0.55215997,32.091 1.44916,10.3934 3.87408,20.5517 6.9538,30.3181"
         style="fill:#000000;fill-opacity:1;fill-rule:nonzero;stroke:none"
         id="path86"
         inkscape:connector-curvature="0" /></g></g></svg>
